<mxfile host="app.diagrams.net" modified="2023-12-06T05:30:27.306Z" agent="Mozilla/5.0 (Windows NT 10.0; Win64; x64) AppleWebKit/537.36 (KHTML, like Gecko) Chrome/119.0.0.0 Safari/537.36 Edg/119.0.0.0" etag="3LA2kSubhKMggjzI7VyR" version="22.1.5" type="github">
  <diagram name="페이지-1" id="HQNS0GgNr0f6B34vUjRH">
    <mxGraphModel dx="1666" dy="843" grid="1" gridSize="10" guides="1" tooltips="1" connect="1" arrows="1" fold="1" page="1" pageScale="1" pageWidth="827" pageHeight="1169" math="0" shadow="0">
      <root>
        <mxCell id="0" />
        <mxCell id="1" parent="0" />
        <mxCell id="tgtz-b0jCP4Kz2ap30oN-1" value="&lt;div style=&quot;text-align: left;&quot;&gt;&lt;span style=&quot;background-color: initial;&quot;&gt;class Shape{&lt;/span&gt;&lt;/div&gt;&lt;div style=&quot;text-align: left;&quot;&gt;&lt;span style=&quot;background-color: initial;&quot;&gt;private:&lt;/span&gt;&lt;/div&gt;&lt;div style=&quot;text-align: left;&quot;&gt;&lt;span style=&quot;background-color: initial;&quot;&gt;&amp;nbsp; &amp;nbsp;Shape* next;&lt;/span&gt;&lt;/div&gt;&lt;div style=&quot;text-align: left;&quot;&gt;&lt;span style=&quot;background-color: initial;&quot;&gt;protected:&lt;/span&gt;&lt;/div&gt;&lt;div style=&quot;text-align: left;&quot;&gt;&lt;span style=&quot;background-color: initial;&quot;&gt;&amp;nbsp; &amp;nbsp;virtual void draw();&lt;/span&gt;&lt;/div&gt;&lt;div style=&quot;text-align: left;&quot;&gt;&lt;span style=&quot;background-color: initial;&quot;&gt;public:&lt;/span&gt;&lt;/div&gt;&lt;div style=&quot;text-align: left;&quot;&gt;&lt;span style=&quot;background-color: initial;&quot;&gt;&amp;nbsp; &amp;nbsp;Shape() {next = NULL;}&lt;/span&gt;&lt;/div&gt;&lt;div style=&quot;text-align: left;&quot;&gt;&lt;span style=&quot;background-color: initial;&quot;&gt;&amp;nbsp; &amp;nbsp;virtual ~Shape() {}&lt;/span&gt;&lt;/div&gt;&lt;div style=&quot;text-align: left;&quot;&gt;&lt;span style=&quot;background-color: initial;&quot;&gt;&amp;nbsp; &amp;nbsp;void paint();&lt;/span&gt;&lt;/div&gt;&lt;div style=&quot;text-align: left;&quot;&gt;&lt;span style=&quot;background-color: initial;&quot;&gt;&amp;nbsp; &amp;nbsp;Shape* add(Shape* p);&lt;/span&gt;&lt;/div&gt;&lt;div style=&quot;text-align: left;&quot;&gt;&lt;span style=&quot;background-color: initial;&quot;&gt;&amp;nbsp; &amp;nbsp;Shape* getNext(){return next;&lt;/span&gt;&lt;/div&gt;&lt;div style=&quot;text-align: left;&quot;&gt;&lt;span style=&quot;background-color: initial;&quot;&gt;};&lt;/span&gt;&lt;/div&gt;" style="whiteSpace=wrap;html=1;" parent="1" vertex="1">
          <mxGeometry x="261" y="60" width="306" height="190" as="geometry" />
        </mxCell>
        <mxCell id="tgtz-b0jCP4Kz2ap30oN-5" style="edgeStyle=orthogonalEdgeStyle;rounded=0;orthogonalLoop=1;jettySize=auto;html=1;exitX=0.5;exitY=0;exitDx=0;exitDy=0;entryX=0.5;entryY=1;entryDx=0;entryDy=0;" parent="1" source="tgtz-b0jCP4Kz2ap30oN-2" target="tgtz-b0jCP4Kz2ap30oN-1" edge="1">
          <mxGeometry relative="1" as="geometry" />
        </mxCell>
        <mxCell id="tgtz-b0jCP4Kz2ap30oN-2" value="&lt;div style=&quot;text-align: justify;&quot;&gt;&lt;span style=&quot;background-color: initial;&quot;&gt;class Circle : public Shape {&lt;/span&gt;&lt;/div&gt;&lt;div style=&quot;text-align: justify;&quot;&gt;&lt;span style=&quot;background-color: initial;&quot;&gt;protected :&lt;/span&gt;&lt;/div&gt;&lt;div style=&quot;text-align: justify;&quot;&gt;&lt;span style=&quot;background-color: initial;&quot;&gt;virtual void draw();&lt;/span&gt;&lt;/div&gt;&lt;div style=&quot;text-align: justify;&quot;&gt;&lt;span style=&quot;background-color: initial;&quot;&gt;};&lt;/span&gt;&lt;/div&gt;" style="whiteSpace=wrap;html=1;align=center;" parent="1" vertex="1">
          <mxGeometry x="40" y="350" width="220" height="170" as="geometry" />
        </mxCell>
        <mxCell id="tgtz-b0jCP4Kz2ap30oN-6" style="edgeStyle=orthogonalEdgeStyle;rounded=0;orthogonalLoop=1;jettySize=auto;html=1;exitX=0.5;exitY=0;exitDx=0;exitDy=0;entryX=0.5;entryY=1;entryDx=0;entryDy=0;" parent="1" source="tgtz-b0jCP4Kz2ap30oN-3" target="tgtz-b0jCP4Kz2ap30oN-1" edge="1">
          <mxGeometry relative="1" as="geometry">
            <mxPoint x="415" y="280" as="targetPoint" />
          </mxGeometry>
        </mxCell>
        <mxCell id="tgtz-b0jCP4Kz2ap30oN-3" value="&lt;div style=&quot;text-align: justify;&quot;&gt;&lt;span style=&quot;background-color: initial;&quot;&gt;class Rect : public Shape {&lt;/span&gt;&lt;/div&gt;&lt;div style=&quot;text-align: justify;&quot;&gt;&lt;span style=&quot;background-color: initial;&quot;&gt;protected :&amp;nbsp;&lt;/span&gt;&lt;/div&gt;&lt;div style=&quot;text-align: justify;&quot;&gt;&lt;span style=&quot;background-color: initial;&quot;&gt;virtual void draw();&lt;/span&gt;&lt;/div&gt;&lt;div style=&quot;text-align: justify;&quot;&gt;&lt;span style=&quot;background-color: initial;&quot;&gt;}&lt;/span&gt;&lt;/div&gt;" style="whiteSpace=wrap;html=1;" parent="1" vertex="1">
          <mxGeometry x="300" y="350" width="230" height="170" as="geometry" />
        </mxCell>
        <mxCell id="tgtz-b0jCP4Kz2ap30oN-7" style="edgeStyle=orthogonalEdgeStyle;rounded=0;orthogonalLoop=1;jettySize=auto;html=1;exitX=0.5;exitY=0;exitDx=0;exitDy=0;entryX=0.5;entryY=1;entryDx=0;entryDy=0;" parent="1" source="tgtz-b0jCP4Kz2ap30oN-4" target="tgtz-b0jCP4Kz2ap30oN-1" edge="1">
          <mxGeometry relative="1" as="geometry" />
        </mxCell>
        <mxCell id="tgtz-b0jCP4Kz2ap30oN-4" value="&lt;div style=&quot;text-align: justify;&quot;&gt;&lt;span style=&quot;background-color: initial;&quot;&gt;class Line : public Shape{&lt;/span&gt;&lt;/div&gt;&lt;div style=&quot;text-align: justify;&quot;&gt;&lt;span style=&quot;background-color: initial;&quot;&gt;protected:&lt;/span&gt;&lt;/div&gt;&lt;div style=&quot;text-align: justify;&quot;&gt;&lt;span style=&quot;background-color: initial;&quot;&gt;virtual void draw();&lt;/span&gt;&lt;/div&gt;&lt;div style=&quot;text-align: justify;&quot;&gt;&lt;span style=&quot;background-color: initial;&quot;&gt;}&lt;/span&gt;&lt;/div&gt;" style="whiteSpace=wrap;html=1;" parent="1" vertex="1">
          <mxGeometry x="580" y="350" width="230" height="170" as="geometry" />
        </mxCell>
        <mxCell id="tgtz-b0jCP4Kz2ap30oN-8" value="void Circle::draw(){&lt;br&gt;cout &amp;lt;&amp;lt; &quot;Circle&quot; &amp;lt;&amp;lt; endl;&lt;br&gt;}" style="text;html=1;align=center;verticalAlign=middle;resizable=0;points=[];autosize=1;strokeColor=none;fillColor=none;" parent="1" vertex="1">
          <mxGeometry x="70" y="530" width="150" height="60" as="geometry" />
        </mxCell>
        <mxCell id="tgtz-b0jCP4Kz2ap30oN-9" value="void Circle::draw(){&lt;br style=&quot;border-color: var(--border-color);&quot;&gt;cout &amp;lt;&amp;lt; &quot;Rectangle&quot; &amp;lt;&amp;lt; endl;&lt;br style=&quot;border-color: var(--border-color);&quot;&gt;}" style="text;html=1;align=center;verticalAlign=middle;resizable=0;points=[];autosize=1;strokeColor=none;fillColor=none;" parent="1" vertex="1">
          <mxGeometry x="325" y="525" width="180" height="60" as="geometry" />
        </mxCell>
        <mxCell id="tgtz-b0jCP4Kz2ap30oN-10" value="&lt;span style=&quot;color: rgb(0, 0, 0); font-family: Helvetica; font-size: 12px; font-style: normal; font-variant-ligatures: normal; font-variant-caps: normal; font-weight: 400; letter-spacing: normal; orphans: 2; text-indent: 0px; text-transform: none; widows: 2; word-spacing: 0px; -webkit-text-stroke-width: 0px; background-color: rgb(251, 251, 251); text-decoration-thickness: initial; text-decoration-style: initial; text-decoration-color: initial; float: none; display: inline !important;&quot;&gt;void Circle::draw(){&lt;/span&gt;&lt;br style=&quot;border-color: var(--border-color); color: rgb(0, 0, 0); font-family: Helvetica; font-size: 12px; font-style: normal; font-variant-ligatures: normal; font-variant-caps: normal; font-weight: 400; letter-spacing: normal; orphans: 2; text-indent: 0px; text-transform: none; widows: 2; word-spacing: 0px; -webkit-text-stroke-width: 0px; background-color: rgb(251, 251, 251); text-decoration-thickness: initial; text-decoration-style: initial; text-decoration-color: initial;&quot;&gt;&lt;span style=&quot;color: rgb(0, 0, 0); font-family: Helvetica; font-size: 12px; font-style: normal; font-variant-ligatures: normal; font-variant-caps: normal; font-weight: 400; letter-spacing: normal; orphans: 2; text-indent: 0px; text-transform: none; widows: 2; word-spacing: 0px; -webkit-text-stroke-width: 0px; background-color: rgb(251, 251, 251); text-decoration-thickness: initial; text-decoration-style: initial; text-decoration-color: initial; float: none; display: inline !important;&quot;&gt;cout &amp;lt;&amp;lt; &quot;Line&quot; &amp;lt;&amp;lt; endl;&lt;/span&gt;&lt;br style=&quot;border-color: var(--border-color); color: rgb(0, 0, 0); font-family: Helvetica; font-size: 12px; font-style: normal; font-variant-ligatures: normal; font-variant-caps: normal; font-weight: 400; letter-spacing: normal; orphans: 2; text-indent: 0px; text-transform: none; widows: 2; word-spacing: 0px; -webkit-text-stroke-width: 0px; background-color: rgb(251, 251, 251); text-decoration-thickness: initial; text-decoration-style: initial; text-decoration-color: initial;&quot;&gt;&lt;span style=&quot;color: rgb(0, 0, 0); font-family: Helvetica; font-size: 12px; font-style: normal; font-variant-ligatures: normal; font-variant-caps: normal; font-weight: 400; letter-spacing: normal; orphans: 2; text-indent: 0px; text-transform: none; widows: 2; word-spacing: 0px; -webkit-text-stroke-width: 0px; background-color: rgb(251, 251, 251); text-decoration-thickness: initial; text-decoration-style: initial; text-decoration-color: initial; float: none; display: inline !important;&quot;&gt;}&lt;/span&gt;" style="text;whiteSpace=wrap;html=1;align=center;" parent="1" vertex="1">
          <mxGeometry x="640" y="525" width="160" height="70" as="geometry" />
        </mxCell>
        <mxCell id="jn0GjycDz6su8DObWG7g-1" value="아두이노" style="whiteSpace=wrap;html=1;labelBackgroundColor=none;fillColor=#B2C9AB;strokeColor=#788AA3;fontColor=#46495D;" vertex="1" parent="1">
          <mxGeometry x="190" y="650" width="100" height="40" as="geometry" />
        </mxCell>
        <mxCell id="jn0GjycDz6su8DObWG7g-2" value="" style="edgeStyle=orthogonalEdgeStyle;rounded=0;orthogonalLoop=1;jettySize=auto;html=1;labelBackgroundColor=none;strokeColor=#788AA3;fontColor=default;" edge="1" parent="1" source="jn0GjycDz6su8DObWG7g-3" target="jn0GjycDz6su8DObWG7g-1">
          <mxGeometry relative="1" as="geometry" />
        </mxCell>
        <mxCell id="jn0GjycDz6su8DObWG7g-3" value="초음파 센서" style="whiteSpace=wrap;html=1;labelBackgroundColor=none;fillColor=#B2C9AB;strokeColor=#788AA3;fontColor=#46495D;" vertex="1" parent="1">
          <mxGeometry x="110" y="740" width="90" height="30" as="geometry" />
        </mxCell>
        <mxCell id="jn0GjycDz6su8DObWG7g-4" value="" style="edgeStyle=orthogonalEdgeStyle;rounded=0;orthogonalLoop=1;jettySize=auto;html=1;labelBackgroundColor=none;strokeColor=#788AA3;fontColor=default;" edge="1" parent="1" source="jn0GjycDz6su8DObWG7g-5" target="jn0GjycDz6su8DObWG7g-1">
          <mxGeometry relative="1" as="geometry" />
        </mxCell>
        <mxCell id="jn0GjycDz6su8DObWG7g-5" value="초음파 센서" style="whiteSpace=wrap;html=1;labelBackgroundColor=none;fillColor=#B2C9AB;strokeColor=#788AA3;fontColor=#46495D;" vertex="1" parent="1">
          <mxGeometry x="270" y="740" width="90" height="30" as="geometry" />
        </mxCell>
        <mxCell id="jn0GjycDz6su8DObWG7g-6" value="" style="edgeStyle=orthogonalEdgeStyle;rounded=0;orthogonalLoop=1;jettySize=auto;html=1;entryX=0.5;entryY=1;entryDx=0;entryDy=0;labelBackgroundColor=none;strokeColor=#788AA3;fontColor=default;" edge="1" parent="1" source="jn0GjycDz6su8DObWG7g-7" target="jn0GjycDz6su8DObWG7g-1">
          <mxGeometry relative="1" as="geometry" />
        </mxCell>
        <mxCell id="jn0GjycDz6su8DObWG7g-7" value="압력센서" style="whiteSpace=wrap;html=1;labelBackgroundColor=none;fillColor=#B2C9AB;strokeColor=#788AA3;fontColor=#46495D;" vertex="1" parent="1">
          <mxGeometry x="190" y="860" width="100" height="30" as="geometry" />
        </mxCell>
        <mxCell id="jn0GjycDz6su8DObWG7g-8" value="" style="endArrow=classic;html=1;rounded=0;fillColor=#B2C9AB;strokeColor=#788AA3;labelBackgroundColor=none;fontColor=default;" edge="1" parent="1">
          <mxGeometry width="50" height="50" relative="1" as="geometry">
            <mxPoint x="140" y="770" as="sourcePoint" />
            <mxPoint x="140" y="970" as="targetPoint" />
          </mxGeometry>
        </mxCell>
        <mxCell id="jn0GjycDz6su8DObWG7g-9" value="" style="endArrow=classic;html=1;rounded=0;fillColor=#B2C9AB;strokeColor=#788AA3;labelBackgroundColor=none;fontColor=default;" edge="1" parent="1">
          <mxGeometry width="50" height="50" relative="1" as="geometry">
            <mxPoint x="330" y="770" as="sourcePoint" />
            <mxPoint x="330" y="970" as="targetPoint" />
          </mxGeometry>
        </mxCell>
        <mxCell id="jn0GjycDz6su8DObWG7g-10" value="Actor" style="shape=umlActor;verticalLabelPosition=bottom;verticalAlign=top;html=1;outlineConnect=0;labelBackgroundColor=none;fillColor=#B2C9AB;strokeColor=#788AA3;fontColor=#46495D;" vertex="1" parent="1">
          <mxGeometry x="390" y="840" width="30" height="60" as="geometry" />
        </mxCell>
        <mxCell id="jn0GjycDz6su8DObWG7g-11" value="컴퓨터" style="whiteSpace=wrap;html=1;labelBackgroundColor=none;fillColor=#B2C9AB;strokeColor=#788AA3;fontColor=#46495D;" vertex="1" parent="1">
          <mxGeometry x="410" y="640" width="120" height="60" as="geometry" />
        </mxCell>
        <mxCell id="jn0GjycDz6su8DObWG7g-12" value="UART" style="text;html=1;align=center;verticalAlign=middle;resizable=0;points=[];autosize=1;strokeColor=none;fillColor=none;labelBackgroundColor=none;fontColor=#46495D;" vertex="1" parent="1">
          <mxGeometry x="90" y="710" width="60" height="30" as="geometry" />
        </mxCell>
        <mxCell id="jn0GjycDz6su8DObWG7g-13" value="UART" style="text;html=1;align=center;verticalAlign=middle;resizable=0;points=[];autosize=1;strokeColor=none;fillColor=none;labelBackgroundColor=none;fontColor=#46495D;" vertex="1" parent="1">
          <mxGeometry x="320" y="710" width="60" height="30" as="geometry" />
        </mxCell>
        <mxCell id="jn0GjycDz6su8DObWG7g-14" value="UART" style="text;html=1;align=center;verticalAlign=middle;resizable=0;points=[];autosize=1;strokeColor=none;fillColor=none;labelBackgroundColor=none;fontColor=#46495D;" vertex="1" parent="1">
          <mxGeometry x="190" y="780" width="60" height="30" as="geometry" />
        </mxCell>
        <mxCell id="jn0GjycDz6su8DObWG7g-15" value="UART(Serial)&lt;br&gt;" style="text;html=1;align=center;verticalAlign=middle;resizable=0;points=[];autosize=1;strokeColor=none;fillColor=none;labelBackgroundColor=none;fontColor=#46495D;" vertex="1" parent="1">
          <mxGeometry x="300" y="640" width="90" height="30" as="geometry" />
        </mxCell>
        <mxCell id="jn0GjycDz6su8DObWG7g-16" value="" style="endArrow=classic;startArrow=classic;html=1;rounded=0;strokeColor=#788AA3;fontColor=#46495D;fillColor=#B2C9AB;" edge="1" parent="1" target="jn0GjycDz6su8DObWG7g-10">
          <mxGeometry width="50" height="50" relative="1" as="geometry">
            <mxPoint x="90" y="870" as="sourcePoint" />
            <mxPoint x="280" y="869.5" as="targetPoint" />
          </mxGeometry>
        </mxCell>
        <mxCell id="jn0GjycDz6su8DObWG7g-17" value="프로세스" style="whiteSpace=wrap;html=1;strokeColor=#788AA3;fontColor=#46495D;fillColor=#B2C9AB;" vertex="1" parent="1">
          <mxGeometry x="240" y="980" width="130" height="30" as="geometry" />
        </mxCell>
        <mxCell id="jn0GjycDz6su8DObWG7g-18" value="" style="edgeStyle=orthogonalEdgeStyle;rounded=0;orthogonalLoop=1;jettySize=auto;html=1;strokeColor=#788AA3;fontColor=#46495D;fillColor=#B2C9AB;" edge="1" parent="1" source="jn0GjycDz6su8DObWG7g-19" target="jn0GjycDz6su8DObWG7g-17">
          <mxGeometry relative="1" as="geometry" />
        </mxCell>
        <mxCell id="jn0GjycDz6su8DObWG7g-19" value="메인쓰레드" style="whiteSpace=wrap;html=1;strokeColor=#788AA3;fontColor=#46495D;fillColor=#B2C9AB;" vertex="1" parent="1">
          <mxGeometry x="240" y="1040" width="130" height="30" as="geometry" />
        </mxCell>
        <mxCell id="jn0GjycDz6su8DObWG7g-20" value="" style="edgeStyle=orthogonalEdgeStyle;rounded=0;orthogonalLoop=1;jettySize=auto;html=1;strokeColor=#788AA3;fontColor=#46495D;fillColor=#B2C9AB;" edge="1" parent="1" source="jn0GjycDz6su8DObWG7g-21" target="jn0GjycDz6su8DObWG7g-19">
          <mxGeometry relative="1" as="geometry">
            <Array as="points">
              <mxPoint x="240" y="1080" />
              <mxPoint x="305" y="1080" />
            </Array>
          </mxGeometry>
        </mxCell>
        <mxCell id="jn0GjycDz6su8DObWG7g-21" value="쓰레드1" style="whiteSpace=wrap;html=1;strokeColor=#788AA3;fontColor=#46495D;fillColor=#B2C9AB;" vertex="1" parent="1">
          <mxGeometry x="210" y="1100" width="60" height="80" as="geometry" />
        </mxCell>
        <mxCell id="jn0GjycDz6su8DObWG7g-22" value="" style="edgeStyle=orthogonalEdgeStyle;rounded=0;orthogonalLoop=1;jettySize=auto;html=1;strokeColor=#788AA3;fontColor=#46495D;fillColor=#B2C9AB;" edge="1" parent="1" source="jn0GjycDz6su8DObWG7g-23" target="jn0GjycDz6su8DObWG7g-19">
          <mxGeometry relative="1" as="geometry">
            <Array as="points">
              <mxPoint x="305" y="1090" />
              <mxPoint x="305" y="1090" />
            </Array>
          </mxGeometry>
        </mxCell>
        <mxCell id="jn0GjycDz6su8DObWG7g-23" value="쓰레드2" style="whiteSpace=wrap;html=1;strokeColor=#788AA3;fontColor=#46495D;fillColor=#B2C9AB;" vertex="1" parent="1">
          <mxGeometry x="280" y="1100" width="60" height="80" as="geometry" />
        </mxCell>
        <mxCell id="jn0GjycDz6su8DObWG7g-24" value="" style="edgeStyle=orthogonalEdgeStyle;rounded=0;orthogonalLoop=1;jettySize=auto;html=1;strokeColor=#788AA3;fontColor=#46495D;fillColor=#B2C9AB;" edge="1" parent="1" source="jn0GjycDz6su8DObWG7g-25" target="jn0GjycDz6su8DObWG7g-19">
          <mxGeometry relative="1" as="geometry">
            <Array as="points">
              <mxPoint x="360" y="1080" />
              <mxPoint x="305" y="1080" />
            </Array>
          </mxGeometry>
        </mxCell>
        <mxCell id="jn0GjycDz6su8DObWG7g-25" value="쓰레드3" style="whiteSpace=wrap;html=1;strokeColor=#788AA3;fontColor=#46495D;fillColor=#B2C9AB;" vertex="1" parent="1">
          <mxGeometry x="350" y="1100" width="60" height="80" as="geometry" />
        </mxCell>
        <mxCell id="jn0GjycDz6su8DObWG7g-26" value="프로세스" style="whiteSpace=wrap;html=1;strokeColor=#788AA3;fontColor=#46495D;fillColor=#B2C9AB;" vertex="1" parent="1">
          <mxGeometry x="520" y="980" width="130" height="30" as="geometry" />
        </mxCell>
        <mxCell id="jn0GjycDz6su8DObWG7g-27" value="" style="edgeStyle=orthogonalEdgeStyle;rounded=0;orthogonalLoop=1;jettySize=auto;html=1;strokeColor=#788AA3;fontColor=#46495D;fillColor=#B2C9AB;" edge="1" parent="1" source="jn0GjycDz6su8DObWG7g-28" target="jn0GjycDz6su8DObWG7g-26">
          <mxGeometry relative="1" as="geometry" />
        </mxCell>
        <mxCell id="jn0GjycDz6su8DObWG7g-28" value="메인쓰레드" style="whiteSpace=wrap;html=1;strokeColor=#788AA3;fontColor=#46495D;fillColor=#B2C9AB;" vertex="1" parent="1">
          <mxGeometry x="520" y="1040" width="130" height="30" as="geometry" />
        </mxCell>
        <mxCell id="jn0GjycDz6su8DObWG7g-29" value="" style="edgeStyle=orthogonalEdgeStyle;rounded=0;orthogonalLoop=1;jettySize=auto;html=1;strokeColor=#788AA3;fontColor=#46495D;fillColor=#B2C9AB;entryX=0.5;entryY=1;entryDx=0;entryDy=0;" edge="1" parent="1" source="jn0GjycDz6su8DObWG7g-30" target="jn0GjycDz6su8DObWG7g-36">
          <mxGeometry relative="1" as="geometry">
            <Array as="points">
              <mxPoint x="484" y="1140" />
              <mxPoint x="585" y="1140" />
            </Array>
          </mxGeometry>
        </mxCell>
        <mxCell id="jn0GjycDz6su8DObWG7g-30" value="쓰레드1" style="whiteSpace=wrap;html=1;strokeColor=#788AA3;fontColor=#46495D;fillColor=#B2C9AB;" vertex="1" parent="1">
          <mxGeometry x="453.5" y="1150" width="60" height="80" as="geometry" />
        </mxCell>
        <mxCell id="jn0GjycDz6su8DObWG7g-31" value="" style="edgeStyle=orthogonalEdgeStyle;rounded=0;orthogonalLoop=1;jettySize=auto;html=1;strokeColor=#788AA3;fontColor=#46495D;fillColor=#B2C9AB;" edge="1" parent="1" source="jn0GjycDz6su8DObWG7g-32" target="jn0GjycDz6su8DObWG7g-36">
          <mxGeometry relative="1" as="geometry" />
        </mxCell>
        <mxCell id="jn0GjycDz6su8DObWG7g-32" value="쓰레드2" style="whiteSpace=wrap;html=1;strokeColor=#788AA3;fontColor=#46495D;fillColor=#B2C9AB;" vertex="1" parent="1">
          <mxGeometry x="555" y="1150" width="60" height="80" as="geometry" />
        </mxCell>
        <mxCell id="jn0GjycDz6su8DObWG7g-33" value="" style="edgeStyle=orthogonalEdgeStyle;rounded=0;orthogonalLoop=1;jettySize=auto;html=1;strokeColor=#788AA3;fontColor=#46495D;fillColor=#B2C9AB;entryX=0.5;entryY=1;entryDx=0;entryDy=0;" edge="1" parent="1" source="jn0GjycDz6su8DObWG7g-34" target="jn0GjycDz6su8DObWG7g-36">
          <mxGeometry relative="1" as="geometry">
            <Array as="points">
              <mxPoint x="690" y="1140" />
              <mxPoint x="585" y="1140" />
            </Array>
          </mxGeometry>
        </mxCell>
        <mxCell id="jn0GjycDz6su8DObWG7g-34" value="쓰레드3" style="whiteSpace=wrap;html=1;strokeColor=#788AA3;fontColor=#46495D;fillColor=#B2C9AB;" vertex="1" parent="1">
          <mxGeometry x="660" y="1150" width="60" height="80" as="geometry" />
        </mxCell>
        <mxCell id="jn0GjycDz6su8DObWG7g-35" value="" style="edgeStyle=orthogonalEdgeStyle;rounded=0;orthogonalLoop=1;jettySize=auto;html=1;strokeColor=#788AA3;fontColor=#46495D;fillColor=#B2C9AB;" edge="1" parent="1" source="jn0GjycDz6su8DObWG7g-36" target="jn0GjycDz6su8DObWG7g-28">
          <mxGeometry relative="1" as="geometry" />
        </mxCell>
        <mxCell id="jn0GjycDz6su8DObWG7g-36" value="처리쓰레드" style="whiteSpace=wrap;html=1;strokeColor=#788AA3;fontColor=#46495D;fillColor=#B2C9AB;" vertex="1" parent="1">
          <mxGeometry x="520" y="1100" width="130" height="30" as="geometry" />
        </mxCell>
        <mxCell id="jn0GjycDz6su8DObWG7g-39" value="" style="endArrow=classic;startArrow=classic;html=1;rounded=0;strokeColor=#788AA3;fontColor=#46495D;fillColor=#B2C9AB;entryX=0;entryY=0.5;entryDx=0;entryDy=0;" edge="1" parent="1" target="jn0GjycDz6su8DObWG7g-11">
          <mxGeometry width="50" height="50" relative="1" as="geometry">
            <mxPoint x="290" y="670" as="sourcePoint" />
            <mxPoint x="375" y="670" as="targetPoint" />
          </mxGeometry>
        </mxCell>
        <mxCell id="jn0GjycDz6su8DObWG7g-40" value="" style="endArrow=classic;html=1;rounded=0;strokeColor=#788AA3;fontColor=#46495D;fillColor=#B2C9AB;exitX=1;exitY=0.75;exitDx=0;exitDy=0;" edge="1" parent="1" source="jn0GjycDz6su8DObWG7g-1">
          <mxGeometry width="50" height="50" relative="1" as="geometry">
            <mxPoint x="550" y="930" as="sourcePoint" />
            <mxPoint x="480" y="780" as="targetPoint" />
            <Array as="points">
              <mxPoint x="390" y="680" />
              <mxPoint x="390" y="780" />
            </Array>
          </mxGeometry>
        </mxCell>
        <mxCell id="jn0GjycDz6su8DObWG7g-41" value="LCD 출력!" style="whiteSpace=wrap;html=1;strokeColor=#788AA3;fontColor=#46495D;fillColor=#B2C9AB;" vertex="1" parent="1">
          <mxGeometry x="480" y="760" width="100" height="40" as="geometry" />
        </mxCell>
        <mxCell id="jn0GjycDz6su8DObWG7g-42" value="" style="edgeStyle=orthogonalEdgeStyle;rounded=0;orthogonalLoop=1;jettySize=auto;html=1;strokeColor=#788AA3;fontColor=#46495D;fillColor=#B2C9AB;" edge="1" parent="1" source="jn0GjycDz6su8DObWG7g-44" target="jn0GjycDz6su8DObWG7g-49">
          <mxGeometry relative="1" as="geometry" />
        </mxCell>
        <mxCell id="jn0GjycDz6su8DObWG7g-43" style="edgeStyle=orthogonalEdgeStyle;rounded=0;orthogonalLoop=1;jettySize=auto;html=1;strokeColor=#788AA3;fontColor=#46495D;fillColor=#B2C9AB;" edge="1" parent="1" source="jn0GjycDz6su8DObWG7g-44">
          <mxGeometry relative="1" as="geometry">
            <mxPoint x="140" y="1440" as="targetPoint" />
            <Array as="points">
              <mxPoint x="140" y="1470" />
              <mxPoint x="140" y="1470" />
            </Array>
          </mxGeometry>
        </mxCell>
        <mxCell id="jn0GjycDz6su8DObWG7g-44" value="R4" style="whiteSpace=wrap;html=1;strokeColor=#788AA3;fontColor=#46495D;fillColor=#B2C9AB;" vertex="1" parent="1">
          <mxGeometry x="120" y="1400" width="40" height="40" as="geometry" />
        </mxCell>
        <mxCell id="jn0GjycDz6su8DObWG7g-45" value="" style="edgeStyle=orthogonalEdgeStyle;rounded=0;orthogonalLoop=1;jettySize=auto;html=1;strokeColor=#788AA3;fontColor=#46495D;fillColor=#B2C9AB;" edge="1" parent="1" source="jn0GjycDz6su8DObWG7g-46">
          <mxGeometry relative="1" as="geometry">
            <mxPoint x="140" y="1400" as="targetPoint" />
          </mxGeometry>
        </mxCell>
        <mxCell id="jn0GjycDz6su8DObWG7g-46" value="센서" style="whiteSpace=wrap;html=1;strokeColor=#788AA3;fontColor=#46495D;fillColor=#B2C9AB;" vertex="1" parent="1">
          <mxGeometry x="120" y="1340" width="40" height="30" as="geometry" />
        </mxCell>
        <mxCell id="jn0GjycDz6su8DObWG7g-47" value="센서" style="whiteSpace=wrap;html=1;strokeColor=#788AA3;fontColor=#46495D;fillColor=#B2C9AB;" vertex="1" parent="1">
          <mxGeometry x="120" y="1470" width="40" height="30" as="geometry" />
        </mxCell>
        <mxCell id="jn0GjycDz6su8DObWG7g-48" value="" style="edgeStyle=orthogonalEdgeStyle;rounded=0;orthogonalLoop=1;jettySize=auto;html=1;strokeColor=#788AA3;fontColor=#46495D;fillColor=#B2C9AB;" edge="1" parent="1" source="jn0GjycDz6su8DObWG7g-49" target="jn0GjycDz6su8DObWG7g-51">
          <mxGeometry relative="1" as="geometry" />
        </mxCell>
        <mxCell id="jn0GjycDz6su8DObWG7g-49" value="컴퓨터" style="whiteSpace=wrap;html=1;strokeColor=#788AA3;fontColor=#46495D;fillColor=#B2C9AB;" vertex="1" parent="1">
          <mxGeometry x="200" y="1400" width="50" height="40" as="geometry" />
        </mxCell>
        <mxCell id="jn0GjycDz6su8DObWG7g-50" value="" style="edgeStyle=orthogonalEdgeStyle;rounded=0;orthogonalLoop=1;jettySize=auto;html=1;strokeColor=#788AA3;fontColor=#46495D;fillColor=#B2C9AB;" edge="1" parent="1" source="jn0GjycDz6su8DObWG7g-51" target="jn0GjycDz6su8DObWG7g-52">
          <mxGeometry relative="1" as="geometry" />
        </mxCell>
        <mxCell id="jn0GjycDz6su8DObWG7g-51" value="R3" style="whiteSpace=wrap;html=1;strokeColor=#788AA3;fontColor=#46495D;fillColor=#B2C9AB;" vertex="1" parent="1">
          <mxGeometry x="285" y="1400" width="40" height="40" as="geometry" />
        </mxCell>
        <mxCell id="jn0GjycDz6su8DObWG7g-52" value="LCD" style="whiteSpace=wrap;html=1;strokeColor=#788AA3;fontColor=#46495D;fillColor=#B2C9AB;" vertex="1" parent="1">
          <mxGeometry x="360" y="1400" width="90" height="40" as="geometry" />
        </mxCell>
        <mxCell id="jn0GjycDz6su8DObWG7g-53" value="초음파" style="text;html=1;align=center;verticalAlign=middle;resizable=0;points=[];autosize=1;strokeColor=none;fillColor=none;fontSize=16;" vertex="1" parent="1">
          <mxGeometry x="85" y="798" width="70" height="30" as="geometry" />
        </mxCell>
        <mxCell id="jn0GjycDz6su8DObWG7g-54" value="초음파" style="text;html=1;align=center;verticalAlign=middle;resizable=0;points=[];autosize=1;strokeColor=none;fillColor=none;fontSize=16;" vertex="1" parent="1">
          <mxGeometry x="320" y="798" width="70" height="30" as="geometry" />
        </mxCell>
      </root>
    </mxGraphModel>
  </diagram>
</mxfile>
